<svg width="68" height="68" viewBox="0 0 68 68" fill="none" xmlns="http://www.w3.org/2000/svg" preserveAspectRatio="none" >
<path d="M67.5513 20.1437C67.5134 17.3035 66.9818 14.4916 65.98 11.8337C65.1113 9.59178 63.7845 7.55571 62.0844 5.85558C60.3843 4.15545 58.3482 2.82865 56.1063 1.95996C53.4825 0.97505 50.7107 0.442491 47.9088 0.384961C44.3013 0.223711 43.1575 0.178711 34 0.178711C24.8425 0.178711 23.6688 0.178711 20.0875 0.384961C17.2869 0.442914 14.5163 0.975466 11.8938 1.95996C9.65149 2.82805 7.6151 4.15463 5.91489 5.85483C4.21469 7.55504 2.8881 9.59143 2.02002 11.8337C1.03314 14.4555 0.501731 17.2266 0.44877 20.0275C0.28752 23.6387 0.23877 24.7825 0.23877 33.94C0.23877 43.0975 0.23877 44.2675 0.44877 47.8525C0.50502 50.6575 1.03377 53.425 2.02002 56.0537C2.88956 58.2953 4.21713 60.3309 5.9179 62.0304C7.61868 63.7298 9.65526 65.0559 11.8975 65.9237C14.5129 66.9482 17.2839 67.5189 20.0913 67.6112C23.7025 67.7725 24.8463 67.8212 34.0038 67.8212C43.1613 67.8212 44.335 67.8212 47.9163 67.6112C50.7181 67.556 53.4901 67.0247 56.1138 66.04C58.3551 65.1703 60.3907 63.8431 62.0907 62.1431C63.7907 60.4431 65.1178 58.4076 65.9875 56.1662C66.9738 53.5412 67.5025 50.7737 67.5588 47.965C67.72 44.3575 67.7688 43.2137 67.7688 34.0525C67.7613 24.895 67.7613 23.7325 67.5513 20.1437ZM33.9775 51.2575C24.4 51.2575 16.6413 43.4987 16.6413 33.9212C16.6413 24.3437 24.4 16.585 33.9775 16.585C38.5754 16.585 42.9849 18.4115 46.2361 21.6626C49.4873 24.9138 51.3138 29.3234 51.3138 33.9212C51.3138 38.5191 49.4873 42.9286 46.2361 46.1798C42.9849 49.431 38.5754 51.2575 33.9775 51.2575ZM52.0038 19.9862C51.4728 19.9867 50.9469 19.8825 50.4562 19.6795C49.9655 19.4765 49.5197 19.1788 49.1442 18.8033C48.7687 18.4278 48.471 17.982 48.268 17.4913C48.065 17.0006 47.9608 16.4747 47.9613 15.9437C47.9613 15.4131 48.0658 14.8877 48.2688 14.3974C48.4719 13.9072 48.7695 13.4618 49.1447 13.0866C49.52 12.7114 49.9654 12.4137 50.4556 12.2107C50.9458 12.0076 51.4713 11.9031 52.0019 11.9031C52.5325 11.9031 53.0579 12.0076 53.5482 12.2107C54.0384 12.4137 54.4838 12.7114 54.8591 13.0866C55.2343 13.4618 55.5319 13.9072 55.7349 14.3974C55.938 14.8877 56.0425 15.4131 56.0425 15.9437C56.0425 18.1787 54.235 19.9862 52.0038 19.9862Z" fill="url(#paint0_linear_259_3)"/>
<defs>
<linearGradient id="paint0_linear_259_3" x1="49.5" y1="5.37305e-07" x2="16" y2="60" gradientUnits="userSpaceOnUse">
<stop stop-color="#5354C5"/>
<stop offset="0.411458" stop-color="#C335A7"/>
<stop offset="0.75" stop-color="#ED4950"/>
<stop offset="1" stop-color="#F5B24D"/>
</linearGradient>
</defs>
</svg>
