<svg width="23" height="24" viewBox="0 0 23 24" fill="none" xmlns="http://www.w3.org/2000/svg" preserveAspectRatio="none">
<path d="M22.8976 8.5175C22.8256 8.30537 22.693 8.11897 22.5163 7.98132C22.3395 7.84367 22.1263 7.76079 21.903 7.74292L15.3706 7.22385L12.5438 0.966457C12.4538 0.764919 12.3074 0.593742 12.1222 0.473585C11.9371 0.353429 11.7211 0.289428 11.5004 0.289307C11.2796 0.289186 11.0636 0.352949 10.8783 0.472903C10.693 0.592856 10.5464 0.763872 10.4561 0.965311L7.62936 7.22385L1.09697 7.74292C0.87749 7.7603 0.667668 7.84055 0.492604 7.97407C0.317541 8.10758 0.184648 8.2887 0.109825 8.49576C0.0350026 8.70282 0.0214181 8.92706 0.0706971 9.14164C0.119976 9.35622 0.230032 9.55206 0.387698 9.70573L5.21509 14.4117L3.5078 21.8046C3.45596 22.0284 3.47258 22.2626 3.55549 22.4768C3.63841 22.691 3.78379 22.8754 3.97278 23.0059C4.16177 23.1365 4.38565 23.2072 4.61535 23.209C4.84505 23.2107 5.06997 23.1434 5.26093 23.0157L11.5 18.8564L17.739 23.0157C17.9342 23.1453 18.1644 23.212 18.3986 23.2069C18.6329 23.2018 18.8599 23.125 19.0492 22.987C19.2385 22.849 19.381 22.6563 19.4575 22.4349C19.5341 22.2134 19.541 21.9739 19.4773 21.7484L17.3815 14.4151L22.5791 9.73781C22.9194 9.43073 23.0443 8.95177 22.8976 8.5175Z" fill="#FFA41C"/>
</svg>
