<svg width="1440" height="346" viewBox="0 0 1440 346" fill="none" xmlns="http://www.w3.org/2000/svg" preserveAspectRatio="none" >
<path d="M0 82.0568L206.4 93.0702L411.2 0.833496L617.6 84.8102L822.4 120.603L1028.8 15.9768L1233.6 44.8868L1440 90.3168V346.377H1233.6H1028.8H822.4H617.6H411.2H206.4H0V82.0568Z" fill="#1E1C81"/>
<path d="M0 117.85L206.4 160.527L411.2 109.59L617.6 152.267L822.4 66.9136L1028.8 148.137L1233.6 102.707L1440 123.357V346.377H1233.6H1028.8H822.4H617.6H411.2H206.4H0V117.85Z" fill="#203077"/>
<path d="M0 193.567L206.4 170.164L411.2 192.19L617.6 182.554L822.4 137.124L1028.8 160.527L1233.6 126.11L1440 134.37V346.377H1233.6H1028.8H822.4H617.6H411.2H206.4H0V193.567Z" fill="#131C70"/>
<path d="M0 208.71L206.4 233.49L411.2 238.997L617.6 258.27L822.4 229.36L1028.8 241.75L1233.6 188.06L1440 256.893V346.377H1233.6H1028.8H822.4H617.6H411.2H206.4H0V208.71Z" fill="#090C57"/>
<path d="M0 261.023L206.4 241.75L411.2 305.077L617.6 277.543L822.4 251.387L1028.8 256.893L1233.6 291.31L1440 294.063V346.377H1233.6H1028.8H822.4H617.6H411.2H206.4H0V261.023Z" fill="#03023E"/>
</svg>
