<svg width="84" height="84" viewBox="0 0 84 84" fill="none" xmlns="http://www.w3.org/2000/svg" preserveAspectRatio="none">
<path d="M42 0.333252C19.4125 0.333252 0.333344 19.4124 0.333344 41.9999C0.333344 64.5874 19.4125 83.6666 42 83.6666C64.5875 83.6666 83.6667 64.5874 83.6667 41.9999C83.6667 19.4124 64.5875 0.333252 42 0.333252ZM42 21.1666C49.1958 21.1666 54.5 26.4666 54.5 33.6666C54.5 40.8666 49.1958 46.1666 42 46.1666C34.8083 46.1666 29.5 40.8666 29.5 33.6666C29.5 26.4666 34.8083 21.1666 42 21.1666ZM20.725 61.8832C24.4625 56.3832 30.6958 52.7166 37.8333 52.7166H46.1667C53.3083 52.7166 59.5375 56.3832 63.275 61.8832C57.95 67.5832 50.3958 71.1666 42 71.1666C33.6042 71.1666 26.05 67.5832 20.725 61.8832Z" fill="#0383CE"/>
</svg>
